Coordinates
version=1
nRows=13
nColumns=40
inDegrees=yes

Units are S.I. units (second, meters, Newtons, ...)
If the header above contains a line with 'inDegrees', this indicates whether rotational values are in degrees (yes) or radians (no).

endheader
time	pelvis_tilt	pelvis_list	pelvis_rotation	pelvis_tx	pelvis_ty	pelvis_tz	hip_flexion_r	hip_adduction_r	hip_rotation_r	knee_angle_r	knee_angle_r_beta	ankle_angle_r	subtalar_angle_r	mtp_angle_r	hip_flexion_l	hip_adduction_l	hip_rotation_l	knee_angle_l	knee_angle_l_beta	ankle_angle_l	subtalar_angle_l	mtp_angle_l	lumbar_extension	lumbar_bending	lumbar_rotation	arm_flex_r	arm_add_r	arm_rot_r	elbow_flex_r	pro_sup_r	wrist_flex_r	wrist_dev_r	arm_flex_l	arm_add_l	arm_rot_l	elbow_flex_l	pro_sup_l	wrist_flex_l	wrist_dev_l
      3.25000000	     15.85556476	     -8.49795312	     -3.77660827	     -0.32843250	      0.84515990	     -1.02382614	     38.90771288	      6.15771343	    -10.99051304	      6.35176330	      0.11085918	     -0.21863550	      0.00000000	      0.00000000	     26.86245946	    -11.83321529	     -7.87079432	     84.16394476	      1.46893795	     29.85583355	      0.00000000	      0.00000000	    -27.86514282	     -1.19773196	     12.57871566	     89.92831929	    -17.56802866	     25.23399791	     33.18565544	     82.98441664	      0.00000000	      0.00000000	     89.95615473	    -16.26416357	     34.52594804	     48.11988133	     78.98625670	      0.00000000	      0.00000000
      3.25500000	     15.82071954	     -8.55144663	     -3.82318415	     -0.32861458	      0.84484277	     -1.02377524	     38.99421759	      6.23231835	    -10.96672697	      6.36932056	      0.11116561	     -0.47933651	      0.00000000	      0.00000000	     26.95067967	    -11.81588957	     -7.77068456	     84.21576733	      1.46984242	     29.91942738	      0.00000000	      0.00000000	    -27.89501213	     -1.14912383	     12.61188591	     89.92855466	    -17.50538306	     25.06572157	     33.22388122	     83.05336220	      0.00000000	      0.00000000	     89.95622517	    -16.29079239	     34.42938526	     48.15944117	     79.18216108	      0.00000000	      0.00000000
      3.26000000	     15.82843758	     -8.52328713	     -3.92816885	     -0.32865334	      0.84456069	     -1.02358494	     39.00409566	      6.30535789	    -10.78816096	      6.32714907	      0.11042958	     -0.37588553	      0.00000000	      0.00000000	     26.94308250	    -11.75244512	     -7.76949120	     84.24859484	      1.47041537	     29.98728268	      0.00000000	      0.00000000	    -27.94983867	     -1.20473287	     12.61309216	     89.92894698	    -17.37090285	     25.25740335	     33.25501954	     80.50654131	      0.00000000	      0.00000000	     89.95626166	    -16.42310301	     34.50043820	     48.27334319	     76.88410935	      0.00000000	      0.00000000
      3.26500000	     15.87420010	     -8.58668230	     -3.96961763	     -0.32870277	      0.84425411	     -1.02346607	     38.98328196	      6.40761315	    -10.74540915	      6.29715467	      0.10990608	     -0.54601466	      0.00000000	      0.00000000	     26.92979261	    -11.79631675	     -7.74853786	     84.33282497	      1.47188546	     30.03377028	      0.00000000	      0.00000000	    -28.04490105	     -1.17375599	     12.72106886	     89.92931271	    -17.44977748	     25.58386610	     33.39160149	     78.61825980	      0.00000000	      0.00000000	     89.95635079	    -16.34084805	     34.49972967	     48.35587453	     74.83176427	      0.00000000	      0.00000000
      3.27000000	     15.86638971	     -8.68180425	     -3.98534706	     -0.32853212	      0.84379684	     -1.02337211	     39.00325796	      6.52995029	    -10.76594031	      6.26379901	      0.10932392	     -0.08366229	      0.00000000	      0.00000000	     26.98315153	    -11.86014732	     -7.64521798	     84.44378028	      1.47382200	     30.12768825	      0.00000000	      0.00000000	    -28.07445196	     -1.06669690	     12.74666039	     89.92924125	    -17.33614341	     24.63556833	     33.33559370	     83.15433424	      0.00000000	      0.00000000	     89.95647089	    -16.39311785	     34.25165149	     48.33672446	     77.70014799	      0.00000000	      0.00000000
      3.27500000	     15.82743268	     -8.68444454	     -4.03618564	     -0.32852354	      0.84342927	     -1.02340017	     39.08398381	      6.55708630	    -10.75451105	      6.25642514	      0.10919522	     -0.29073404	      0.00000000	      0.00000000	     27.06246675	    -11.78563802	     -7.57055600	     84.51165462	      1.47500663	     30.15704681	      0.00000000	      0.00000000	    -28.06549172	     -1.07278336	     12.80018833	     89.92941897	    -17.39072447	     24.91256369	     33.34637376	     82.10513546	      0.00000000	      0.00000000	     89.95647820	    -16.35154653	     34.23913806	     48.33029260	     77.30568030	      0.00000000	      0.00000000
      3.28000000	     15.79270485	     -8.72897372	     -4.09283903	     -0.32852724	      0.84296572	     -1.02331925	     39.10208949	      6.65249094	    -10.66369560	      6.11134164	      0.10666303	     -0.31091017	      0.00000000	      0.00000000	     27.14377209	    -11.77807579	     -7.48012919	     84.60651473	      1.47666225	     30.29689874	      0.00000000	      0.00000000	    -28.08704894	     -1.00776646	     12.72351789	     89.92981769	    -17.16497476	     25.64484726	     33.51191715	     75.34013541	      0.00000000	      0.00000000	     89.95625398	    -16.57873466	     34.36825072	     48.60742394	     71.07389963	      0.00000000	      0.00000000
      3.28500000	     15.78414276	     -8.79397467	     -4.14958690	     -0.32848124	      0.84265014	     -1.02329094	     39.16840512	      6.74207329	    -10.60769040	      6.18202104	      0.10789662	     -0.13551559	      0.00000000	      0.00000000	     27.17826393	    -11.80626762	     -7.42545350	     84.69197524	      1.47815382	     30.33089954	      0.00000000	      0.00000000	    -28.09862408	     -0.96012832	     12.90258785	     89.92991127	    -17.31634511	     25.74710056	     33.52576996	     75.25013114	      0.00000000	      0.00000000	     89.95653858	    -16.42090272	     34.39358984	     48.52309938	     70.85589062	      0.00000000	      0.00000000
      3.29000000	     15.73027346	     -8.86410613	     -4.27440775	     -0.32858542	      0.84233360	     -1.02302206	     39.30108248	      6.86829692	    -10.64628948	      6.27435552	      0.10950816	     -0.58322584	      0.00000000	      0.00000000	     27.25738960	    -11.91006441	     -7.42703477	     84.75420140	      1.47923987	     30.31269938	      0.00000000	      0.00000000	    -28.09453539	     -0.96989123	     13.12811617	     89.92969286	    -17.47839810	     24.72450473	     33.52986429	     82.76536186	      0.00000000	      0.00000000	     89.95664511	    -16.23636339	     33.83097589	     48.31534364	     79.85294327	      0.00000000	      0.00000000
      3.29500000	     15.80882048	     -8.79852603	     -4.36967521	     -0.32842813	      0.84213857	     -1.02294933	     39.22818703	      6.88999267	    -10.57490260	      6.22521421	      0.10865048	     -0.28751642	      0.00000000	      0.00000000	     27.14822797	    -11.82321930	     -7.49511262	     84.77571852	      1.47961541	     30.38729766	      0.00000000	      0.00000000	    -28.19720506	     -1.06552210	     13.16479047	     89.92971841	    -17.43280435	     24.63607405	     33.55460003	     82.97895780	      0.00000000	      0.00000000	     89.95670317	    -16.26217541	     33.79149797	     48.36860174	     79.30646088	      0.00000000	      0.00000000
      3.30000000	     15.67730338	     -8.82218970	     -4.38345983	     -0.32850208	      0.84153475	     -1.02309276	     39.42587204	      6.89518369	    -10.56457496	      6.24861233	      0.10905886	     -0.29278044	      0.00000000	      0.00000000	     27.38050519	    -11.76950585	     -7.37029971	     84.87680963	      1.48137979	     30.39185157	      0.00000000	      0.00000000	    -28.10399981	     -1.00888188	     13.19293524	     89.92988921	    -17.47262706	     24.68152430	     33.58527041	     82.90033902	      0.00000000	      0.00000000	     89.95672879	    -16.21628784	     33.72166351	     48.35993196	     79.59489820	      0.00000000	      0.00000000
      3.30500000	     15.64630855	     -8.85985078	     -4.43289053	     -0.32846112	      0.84120919	     -1.02309285	     39.48407184	      6.95999519	    -10.62740870	      6.22375665	      0.10862505	     -0.35363866	      0.00000000	      0.00000000	     27.44133917	    -11.77155513	     -7.30513147	     84.95013438	      1.48265954	     30.44949905	      0.00000000	      0.00000000	    -28.10513411	     -0.96482022	     13.19277896	     89.93007885	    -17.39702169	     24.82567864	     33.58435351	     81.69853766	      0.00000000	      0.00000000	     89.95673845	    -16.28788967	     33.73999842	     48.40412649	     78.72852328	      0.00000000	      0.00000000
      3.31000000	     15.68811367	     -8.89433560	     -4.46370945	     -0.32828310	      0.84090730	     -1.02297544	     39.43354854	      7.01955126	    -10.61316491	      6.17212770	      0.10772395	     -0.04851404	      0.00000000	      0.00000000	     27.41105223	    -11.75951396	     -7.24481737	     85.02719380	      1.48400449	     30.66548565	      0.00000000	      0.00000000	    -28.16989972	     -0.91938451	     13.10789921	     89.93034546	    -17.12542772	     25.15310389	     33.53826690	     77.35331528	      0.00000000	      0.00000000	     89.95665153	    -16.45233479	     33.90632057	     48.54091357	     74.47473963	      0.00000000	      0.00000000
